<mxfile host="app.diagrams.net" agent="Mozilla/5.0 (Macintosh; Intel Mac OS X 10_15_7) AppleWebKit/605.1.15 (KHTML, like Gecko) Version/18.1.1 Safari/605.1.15" version="25.0.3">
  <diagram name="Trang-1" id="wHCXTxOX28G125Q4SG9T">
    <mxGraphModel dx="954" dy="647" grid="1" gridSize="10" guides="1" tooltips="1" connect="1" arrows="1" fold="1" page="1" pageScale="1" pageWidth="827" pageHeight="1169" math="0" shadow="0">
      <root>
        <mxCell id="0" />
        <mxCell id="1" parent="0" />
        <mxCell id="5H44cNNyPtTebJvEYgaW-11" style="edgeStyle=orthogonalEdgeStyle;rounded=0;orthogonalLoop=1;jettySize=auto;html=1;exitX=0.5;exitY=1;exitDx=0;exitDy=0;" edge="1" parent="1" source="5H44cNNyPtTebJvEYgaW-1">
          <mxGeometry relative="1" as="geometry">
            <mxPoint x="368" y="170" as="targetPoint" />
          </mxGeometry>
        </mxCell>
        <mxCell id="5H44cNNyPtTebJvEYgaW-1" value="begin" style="ellipse;whiteSpace=wrap;html=1;" vertex="1" parent="1">
          <mxGeometry x="307.5" y="50" width="120" height="80" as="geometry" />
        </mxCell>
        <mxCell id="5H44cNNyPtTebJvEYgaW-12" style="edgeStyle=orthogonalEdgeStyle;rounded=0;orthogonalLoop=1;jettySize=auto;html=1;exitX=0.5;exitY=1;exitDx=0;exitDy=0;entryX=0;entryY=0.5;entryDx=0;entryDy=0;" edge="1" parent="1" source="5H44cNNyPtTebJvEYgaW-8" target="5H44cNNyPtTebJvEYgaW-25">
          <mxGeometry relative="1" as="geometry">
            <mxPoint x="160" y="270" as="targetPoint" />
            <Array as="points">
              <mxPoint x="368" y="255" />
              <mxPoint x="100" y="255" />
            </Array>
          </mxGeometry>
        </mxCell>
        <mxCell id="5H44cNNyPtTebJvEYgaW-8" value="&lt;div&gt;nhập n&lt;/div&gt;" style="shape=parallelogram;perimeter=parallelogramPerimeter;whiteSpace=wrap;html=1;fixedSize=1;size=12.5;" vertex="1" parent="1">
          <mxGeometry x="307.5" y="180" width="120" height="60" as="geometry" />
        </mxCell>
        <mxCell id="5H44cNNyPtTebJvEYgaW-17" value="end" style="ellipse;whiteSpace=wrap;html=1;" vertex="1" parent="1">
          <mxGeometry x="330" y="600" width="120" height="80" as="geometry" />
        </mxCell>
        <mxCell id="5H44cNNyPtTebJvEYgaW-38" style="edgeStyle=orthogonalEdgeStyle;rounded=0;orthogonalLoop=1;jettySize=auto;html=1;exitX=0.5;exitY=0;exitDx=0;exitDy=0;" edge="1" parent="1" source="5H44cNNyPtTebJvEYgaW-25">
          <mxGeometry relative="1" as="geometry">
            <mxPoint x="190" y="310" as="targetPoint" />
          </mxGeometry>
        </mxCell>
        <mxCell id="5H44cNNyPtTebJvEYgaW-43" value="" style="edgeStyle=orthogonalEdgeStyle;rounded=0;orthogonalLoop=1;jettySize=auto;html=1;" edge="1" parent="1" source="5H44cNNyPtTebJvEYgaW-25" target="5H44cNNyPtTebJvEYgaW-42">
          <mxGeometry relative="1" as="geometry" />
        </mxCell>
        <mxCell id="5H44cNNyPtTebJvEYgaW-25" value="n &amp;lt; 4 ?" style="rhombus;whiteSpace=wrap;html=1;direction=south;" vertex="1" parent="1">
          <mxGeometry x="60" y="270" width="80" height="80" as="geometry" />
        </mxCell>
        <mxCell id="5H44cNNyPtTebJvEYgaW-39" value="" style="edgeStyle=orthogonalEdgeStyle;rounded=0;orthogonalLoop=1;jettySize=auto;html=1;" edge="1" parent="1" source="5H44cNNyPtTebJvEYgaW-34" target="5H44cNNyPtTebJvEYgaW-35">
          <mxGeometry relative="1" as="geometry" />
        </mxCell>
        <mxCell id="5H44cNNyPtTebJvEYgaW-45" value="" style="edgeStyle=orthogonalEdgeStyle;rounded=0;orthogonalLoop=1;jettySize=auto;html=1;" edge="1" parent="1" source="5H44cNNyPtTebJvEYgaW-34" target="5H44cNNyPtTebJvEYgaW-44">
          <mxGeometry relative="1" as="geometry" />
        </mxCell>
        <mxCell id="5H44cNNyPtTebJvEYgaW-34" value="4 &amp;lt;= n &amp;lt;= 6 ?" style="rhombus;whiteSpace=wrap;html=1;" vertex="1" parent="1">
          <mxGeometry x="210" y="270" width="80" height="80" as="geometry" />
        </mxCell>
        <mxCell id="5H44cNNyPtTebJvEYgaW-40" value="" style="edgeStyle=orthogonalEdgeStyle;rounded=0;orthogonalLoop=1;jettySize=auto;html=1;" edge="1" parent="1" source="5H44cNNyPtTebJvEYgaW-35" target="5H44cNNyPtTebJvEYgaW-36">
          <mxGeometry relative="1" as="geometry" />
        </mxCell>
        <mxCell id="5H44cNNyPtTebJvEYgaW-47" value="" style="edgeStyle=orthogonalEdgeStyle;rounded=0;orthogonalLoop=1;jettySize=auto;html=1;" edge="1" parent="1" source="5H44cNNyPtTebJvEYgaW-35" target="5H44cNNyPtTebJvEYgaW-46">
          <mxGeometry relative="1" as="geometry" />
        </mxCell>
        <mxCell id="5H44cNNyPtTebJvEYgaW-35" value="6 &amp;lt; n &amp;lt;= 8 ?" style="rhombus;whiteSpace=wrap;html=1;" vertex="1" parent="1">
          <mxGeometry x="340" y="270" width="80" height="80" as="geometry" />
        </mxCell>
        <mxCell id="5H44cNNyPtTebJvEYgaW-41" value="" style="edgeStyle=orthogonalEdgeStyle;rounded=0;orthogonalLoop=1;jettySize=auto;html=1;" edge="1" parent="1" source="5H44cNNyPtTebJvEYgaW-36" target="5H44cNNyPtTebJvEYgaW-37">
          <mxGeometry relative="1" as="geometry" />
        </mxCell>
        <mxCell id="5H44cNNyPtTebJvEYgaW-49" value="" style="edgeStyle=orthogonalEdgeStyle;rounded=0;orthogonalLoop=1;jettySize=auto;html=1;" edge="1" parent="1" source="5H44cNNyPtTebJvEYgaW-36" target="5H44cNNyPtTebJvEYgaW-48">
          <mxGeometry relative="1" as="geometry" />
        </mxCell>
        <mxCell id="5H44cNNyPtTebJvEYgaW-36" value="8 &amp;lt; n &amp;lt;= 9 ?" style="rhombus;whiteSpace=wrap;html=1;" vertex="1" parent="1">
          <mxGeometry x="470" y="270" width="80" height="80" as="geometry" />
        </mxCell>
        <mxCell id="5H44cNNyPtTebJvEYgaW-51" value="" style="edgeStyle=orthogonalEdgeStyle;rounded=0;orthogonalLoop=1;jettySize=auto;html=1;" edge="1" parent="1" source="5H44cNNyPtTebJvEYgaW-37" target="5H44cNNyPtTebJvEYgaW-50">
          <mxGeometry relative="1" as="geometry" />
        </mxCell>
        <mxCell id="5H44cNNyPtTebJvEYgaW-37" value="9 &amp;lt; n &amp;lt;= 10 ?" style="rhombus;whiteSpace=wrap;html=1;" vertex="1" parent="1">
          <mxGeometry x="600" y="270" width="80" height="80" as="geometry" />
        </mxCell>
        <mxCell id="5H44cNNyPtTebJvEYgaW-52" style="edgeStyle=orthogonalEdgeStyle;rounded=0;orthogonalLoop=1;jettySize=auto;html=1;exitX=0.5;exitY=1;exitDx=0;exitDy=0;" edge="1" parent="1" source="5H44cNNyPtTebJvEYgaW-42">
          <mxGeometry relative="1" as="geometry">
            <mxPoint x="390" y="590" as="targetPoint" />
          </mxGeometry>
        </mxCell>
        <mxCell id="5H44cNNyPtTebJvEYgaW-42" value="không đạt" style="shape=parallelogram;perimeter=parallelogramPerimeter;whiteSpace=wrap;html=1;fixedSize=1;" vertex="1" parent="1">
          <mxGeometry x="40" y="440" width="120" height="60" as="geometry" />
        </mxCell>
        <mxCell id="5H44cNNyPtTebJvEYgaW-53" style="edgeStyle=orthogonalEdgeStyle;rounded=0;orthogonalLoop=1;jettySize=auto;html=1;exitX=0.5;exitY=1;exitDx=0;exitDy=0;" edge="1" parent="1" source="5H44cNNyPtTebJvEYgaW-44">
          <mxGeometry relative="1" as="geometry">
            <mxPoint x="390" y="590" as="targetPoint" />
          </mxGeometry>
        </mxCell>
        <mxCell id="5H44cNNyPtTebJvEYgaW-44" value="trung bình&amp;nbsp;" style="shape=parallelogram;perimeter=parallelogramPerimeter;whiteSpace=wrap;html=1;fixedSize=1;" vertex="1" parent="1">
          <mxGeometry x="187.5" y="440" width="120" height="60" as="geometry" />
        </mxCell>
        <mxCell id="5H44cNNyPtTebJvEYgaW-54" style="edgeStyle=orthogonalEdgeStyle;rounded=0;orthogonalLoop=1;jettySize=auto;html=1;exitX=0.5;exitY=1;exitDx=0;exitDy=0;" edge="1" parent="1" source="5H44cNNyPtTebJvEYgaW-46">
          <mxGeometry relative="1" as="geometry">
            <mxPoint x="390" y="590" as="targetPoint" />
          </mxGeometry>
        </mxCell>
        <mxCell id="5H44cNNyPtTebJvEYgaW-46" value="khá&amp;nbsp;" style="shape=parallelogram;perimeter=parallelogramPerimeter;whiteSpace=wrap;html=1;fixedSize=1;" vertex="1" parent="1">
          <mxGeometry x="320" y="440" width="120" height="60" as="geometry" />
        </mxCell>
        <mxCell id="5H44cNNyPtTebJvEYgaW-55" style="edgeStyle=orthogonalEdgeStyle;rounded=0;orthogonalLoop=1;jettySize=auto;html=1;exitX=0.5;exitY=1;exitDx=0;exitDy=0;" edge="1" parent="1" source="5H44cNNyPtTebJvEYgaW-48">
          <mxGeometry relative="1" as="geometry">
            <mxPoint x="390" y="590" as="targetPoint" />
          </mxGeometry>
        </mxCell>
        <mxCell id="5H44cNNyPtTebJvEYgaW-48" value="gỏi&amp;nbsp;" style="shape=parallelogram;perimeter=parallelogramPerimeter;whiteSpace=wrap;html=1;fixedSize=1;" vertex="1" parent="1">
          <mxGeometry x="450" y="440" width="120" height="60" as="geometry" />
        </mxCell>
        <mxCell id="5H44cNNyPtTebJvEYgaW-56" style="edgeStyle=orthogonalEdgeStyle;rounded=0;orthogonalLoop=1;jettySize=auto;html=1;exitX=0.5;exitY=1;exitDx=0;exitDy=0;" edge="1" parent="1" source="5H44cNNyPtTebJvEYgaW-50">
          <mxGeometry relative="1" as="geometry">
            <mxPoint x="390" y="590" as="targetPoint" />
          </mxGeometry>
        </mxCell>
        <mxCell id="5H44cNNyPtTebJvEYgaW-50" value="xuất sắc" style="shape=parallelogram;perimeter=parallelogramPerimeter;whiteSpace=wrap;html=1;fixedSize=1;" vertex="1" parent="1">
          <mxGeometry x="580" y="440" width="120" height="60" as="geometry" />
        </mxCell>
        <mxCell id="5H44cNNyPtTebJvEYgaW-57" value="false" style="text;html=1;align=center;verticalAlign=middle;resizable=0;points=[];autosize=1;strokeColor=none;fillColor=none;" vertex="1" parent="1">
          <mxGeometry x="145" y="268" width="50" height="30" as="geometry" />
        </mxCell>
        <mxCell id="5H44cNNyPtTebJvEYgaW-58" value="false" style="text;html=1;align=center;verticalAlign=middle;resizable=0;points=[];autosize=1;strokeColor=none;fillColor=none;" vertex="1" parent="1">
          <mxGeometry x="280" y="268" width="50" height="30" as="geometry" />
        </mxCell>
        <mxCell id="5H44cNNyPtTebJvEYgaW-59" value="false" style="text;html=1;align=center;verticalAlign=middle;resizable=0;points=[];autosize=1;strokeColor=none;fillColor=none;" vertex="1" parent="1">
          <mxGeometry x="414" y="270" width="50" height="30" as="geometry" />
        </mxCell>
        <mxCell id="5H44cNNyPtTebJvEYgaW-60" value="false" style="text;html=1;align=center;verticalAlign=middle;resizable=0;points=[];autosize=1;strokeColor=none;fillColor=none;" vertex="1" parent="1">
          <mxGeometry x="550" y="280" width="50" height="30" as="geometry" />
        </mxCell>
        <mxCell id="5H44cNNyPtTebJvEYgaW-61" value="true" style="text;html=1;align=center;verticalAlign=middle;resizable=0;points=[];autosize=1;strokeColor=none;fillColor=none;" vertex="1" parent="1">
          <mxGeometry x="40" y="358" width="40" height="30" as="geometry" />
        </mxCell>
        <mxCell id="5H44cNNyPtTebJvEYgaW-62" value="true" style="text;html=1;align=center;verticalAlign=middle;resizable=0;points=[];autosize=1;strokeColor=none;fillColor=none;" vertex="1" parent="1">
          <mxGeometry x="200" y="368" width="40" height="30" as="geometry" />
        </mxCell>
        <mxCell id="5H44cNNyPtTebJvEYgaW-63" value="true" style="text;html=1;align=center;verticalAlign=middle;resizable=0;points=[];autosize=1;strokeColor=none;fillColor=none;" vertex="1" parent="1">
          <mxGeometry x="340" y="368" width="40" height="30" as="geometry" />
        </mxCell>
        <mxCell id="5H44cNNyPtTebJvEYgaW-64" value="true" style="text;html=1;align=center;verticalAlign=middle;resizable=0;points=[];autosize=1;strokeColor=none;fillColor=none;" vertex="1" parent="1">
          <mxGeometry x="464" y="368" width="40" height="30" as="geometry" />
        </mxCell>
        <mxCell id="5H44cNNyPtTebJvEYgaW-65" value="true" style="text;html=1;align=center;verticalAlign=middle;resizable=0;points=[];autosize=1;strokeColor=none;fillColor=none;" vertex="1" parent="1">
          <mxGeometry x="600" y="370" width="40" height="30" as="geometry" />
        </mxCell>
      </root>
    </mxGraphModel>
  </diagram>
</mxfile>
